<svg xmlns="http://www.w3.org/2000/svg" width="41" height="40" fill="none"><g fill="#7C7C7C" clip-path="url(#a)"><path d="M16.254 20a3.828 3.828 0 1 0 7.656 0 3.828 3.828 0 0 0-7.656 0Z"/><path d="M11.13 13.227c.183-.499.477-.95.858-1.32.37-.382.822-.676 1.32-.86.405-.157 1.013-.344 2.133-.395 1.211-.055 1.574-.067 4.64-.067 3.067 0 3.43.012 4.642.067 1.12.051 1.728.238 2.132.395.499.184.95.478 1.32.86.382.37.675.82.86 1.32.157.405.344 1.013.395 2.132.055 1.211.067 1.574.067 4.641s-.012 3.43-.067 4.641c-.051 1.12-.238 1.728-.395 2.132a3.56 3.56 0 0 1-.86 1.32c-.37.382-.82.676-1.32.86-.404.157-1.013.344-2.132.395-1.211.056-1.574.067-4.64.067-3.068 0-3.431-.011-4.642-.067-1.12-.05-1.728-.238-2.132-.395a3.803 3.803 0 0 1-2.18-2.18c-.157-.404-.344-1.012-.395-2.132-.056-1.211-.067-1.574-.067-4.64 0-3.068.011-3.43.067-4.642.05-1.12.238-1.727.395-2.132Zm8.952 12.67a5.897 5.897 0 1 0 0-11.794 5.897 5.897 0 0 0 0 11.794Zm-6.13-10.65a1.378 1.378 0 1 0 0-2.756 1.378 1.378 0 0 0 0 2.757Z"/><path d="M20.082 0c11.044 0 20 8.956 20 20s-8.956 20-20 20-20-8.956-20-20 8.956-20 20-20ZM8.667 24.735c.055 1.222.25 2.057.534 2.788a5.872 5.872 0 0 0 3.358 3.358c.73.284 1.566.478 2.788.534 1.225.056 1.616.07 4.735.07s3.51-.014 4.735-.07c1.222-.056 2.057-.25 2.787-.534a5.625 5.625 0 0 0 2.035-1.324 5.629 5.629 0 0 0 1.324-2.034c.284-.73.478-1.566.534-2.788.056-1.225.07-1.616.07-4.735s-.014-3.51-.07-4.735c-.055-1.222-.25-2.057-.533-2.788a5.626 5.626 0 0 0-1.325-2.034 5.625 5.625 0 0 0-2.034-1.324c-.731-.284-1.566-.478-2.788-.534-1.225-.056-1.616-.07-4.735-.07s-3.51.014-4.735.07c-1.222.056-2.057.25-2.788.533-.766.289-1.46.741-2.034 1.325a5.628 5.628 0 0 0-1.324 2.034c-.284.731-.479 1.566-.534 2.788-.056 1.225-.07 1.616-.07 4.735s.014 3.51.07 4.735Z"/></g><defs><clipPath id="a"><path fill="#fff" d="M40.082 0h-40v40h40z"/></clipPath></defs></svg>