<svg xmlns="http://www.w3.org/2000/svg" width="131" height="42" fill="none"><g clip-path="url(#a)"><path fill="#fff" d="M40.706 21.243c-.644.37-1.425.663-2.344.877-.92.215-1.874.322-2.864.322-1.337 0-2.476-.16-3.419-.483-.93-.322-1.635-.77-2.112-1.342a3.06 3.06 0 0 1-.698-1.987c0-.656.179-1.235.537-1.736.358-.501.853-.89 1.486-1.164a2.718 2.718 0 0 1-1.128-1.038 3.02 3.02 0 0 1-.376-1.485c0-.692.215-1.325.645-1.898.441-.572 1.11-1.032 2.004-1.378.895-.346 1.999-.519 3.311-.519.824 0 1.635.078 2.435.233.8.155 1.503.364 2.112.626l-.967 2.65a8.434 8.434 0 0 0-3.436-.735c-.848 0-1.48.114-1.898.34-.417.215-.626.52-.626.913 0 .716.519 1.074 1.557 1.074h3.544v2.703h-3.777c-.608 0-1.068.101-1.378.304-.31.191-.465.478-.465.86 0 .405.227.721.68.948.453.227 1.157.34 2.112.34.68 0 1.378-.09 2.094-.268.728-.191 1.36-.448 1.898-.77l1.073 2.613ZM49.829 17.109c1.11.37 1.664 1.133 1.664 2.29 0 .872-.34 1.558-1.02 2.059-.68.49-1.682.734-3.007.734h-5.459V12.49h5.209c1.264 0 2.243.22 2.935.662.704.441 1.056 1.062 1.056 1.861 0 .466-.12.878-.358 1.236-.239.357-.579.644-1.02.859Zm-4.78-.716h1.862c.788 0 1.182-.293 1.182-.877 0-.561-.394-.842-1.182-.842H45.05v1.719Zm2.113 3.597c.823 0 1.235-.298 1.235-.895 0-.596-.4-.895-1.2-.895H45.05v1.79h2.112ZM57.758 18.737h-1.146v3.455h-3.4V12.49h3.4v3.58h1.217l2.38-3.58h3.598l-3.257 4.653 3.472 5.048h-4.01l-2.254-3.455ZM75.03 12.49v9.702h-3.4v-6.999h-2.453l-.072 1.486c-.047 1.265-.173 2.309-.376 3.132-.202.824-.537 1.468-1.002 1.933-.465.454-1.104.68-1.915.68-.418 0-.967-.077-1.647-.232l.143-2.774c.215.023.358.035.43.035.37 0 .65-.119.841-.358.191-.238.322-.554.394-.948.072-.406.12-.943.143-1.611l.143-4.045h8.77ZM87.303 12.49v9.702h-3.24v-1.02a3.589 3.589 0 0 1-1.288.877 4.07 4.07 0 0 1-1.576.304c-1.264 0-2.273-.37-3.025-1.11-.74-.74-1.11-1.85-1.11-3.329v-5.423h3.402v4.868c0 1.396.542 2.094 1.628 2.094.537 0 .973-.185 1.307-.555.334-.381.501-.96.501-1.736v-4.671h3.4ZM99.913 12.49v7.93c0 1.802-.489 3.15-1.467 4.045-.979.907-2.387 1.36-4.224 1.36-.955 0-1.85-.107-2.685-.322-.836-.215-1.546-.53-2.13-.948l1.235-2.381c.394.322.889.573 1.485.752a5.958 5.958 0 0 0 1.79.286c.895 0 1.552-.197 1.97-.59.417-.394.626-.979.626-1.755v-.322c-.657.764-1.617 1.146-2.882 1.146-.86 0-1.653-.191-2.38-.573a4.516 4.516 0 0 1-1.737-1.647c-.43-.716-.644-1.539-.644-2.47 0-.919.215-1.73.644-2.434a4.347 4.347 0 0 1 1.736-1.647 4.923 4.923 0 0 1 2.38-.59c1.385 0 2.4.447 3.044 1.342v-1.181h3.24Zm-5.477 6.498c.609 0 1.11-.185 1.504-.555.406-.37.609-.847.609-1.432s-.197-1.056-.591-1.414c-.394-.37-.901-.555-1.522-.555-.62 0-1.133.185-1.539.555-.394.358-.59.83-.59 1.414 0 .585.202 1.062.608 1.432.406.37.913.555 1.521.555ZM34.787 26.933v5.841H33.15v-4.531h-2.22v4.531h-1.627v-5.841h5.483ZM38.364 28.176c.495 0 .926.095 1.293.284.367.189.648.462.843.817.2.351.3.763.3 1.236 0 .467-.091.878-.275 1.235a2 2 0 0 1-.776.817c-.334.19-.72.284-1.16.284-.517 0-.924-.158-1.218-.476v2.02h-1.586v-3.864c0-.467.106-.879.317-1.235.212-.356.512-.631.901-.826.39-.195.843-.292 1.36-.292Zm-.075 3.413a.87.87 0 0 0 .684-.292c.178-.2.267-.462.267-.784 0-.323-.09-.582-.267-.777-.173-.2-.4-.3-.684-.3-.284 0-.512.1-.685.3-.172.195-.258.454-.258.777 0 .328.083.59.25.784.172.195.403.292.693.292ZM43.795 32.85c-.484 0-.921-.101-1.31-.301-.39-.2-.696-.479-.918-.835a2.278 2.278 0 0 1-.326-1.21c0-.445.109-.845.326-1.201.222-.357.525-.632.91-.827.389-.2.828-.3 1.318-.3.49 0 .929.1 1.318.3.39.195.693.47.91.827.217.35.325.75.325 1.201 0 .45-.108.854-.325 1.21a2.24 2.24 0 0 1-.91.835c-.39.2-.829.3-1.318.3Zm0-1.261a.898.898 0 0 0 .684-.284c.178-.194.267-.461.267-.8 0-.335-.09-.596-.267-.785a.898.898 0 0 0-.684-.284.898.898 0 0 0-.685.284c-.178.189-.267.45-.267.784 0 .34.09.607.267.801.178.19.407.284.685.284ZM49.487 31.64c.217 0 .403-.032.559-.093a1.64 1.64 0 0 0 .484-.3l.826.868c-.428.49-1.068.734-1.92.734-.528 0-.992-.1-1.393-.3-.4-.2-.712-.479-.935-.835a2.278 2.278 0 0 1-.325-1.21c0-.445.108-.843.325-1.193.217-.356.515-.634.893-.835.384-.2.813-.3 1.285-.3.44 0 .84.092 1.202.275.367.178.66.443.876.793.217.345.326.757.326 1.235l-3.23.618c.173.361.515.542 1.027.542Zm-.192-2.337a.903.903 0 0 0-.668.258c-.172.167-.27.41-.292.726l1.836-.359a.822.822 0 0 0-.317-.45.905.905 0 0 0-.56-.175ZM54.565 31.163h-.534v1.611h-1.585v-4.523h1.585v1.67h.568l1.11-1.67h1.677l-1.519 2.17 1.619 2.353h-1.87l-1.05-1.61ZM63.903 28.176c.556 0 .998.167 1.327.5.334.335.5.838.5 1.511v2.587h-1.585v-2.328c0-.317-.061-.551-.184-.701-.117-.15-.283-.226-.5-.226a.724.724 0 0 0-.576.25c-.145.168-.217.42-.217.76v2.245h-1.586v-2.328c0-.618-.228-.927-.684-.927a.734.734 0 0 0-.584.25c-.145.168-.217.42-.217.76v2.245h-1.585v-4.523h1.51v.476c.167-.184.364-.32.592-.41.234-.094.487-.141.76-.141.317 0 .6.058.851.175.25.117.453.295.61.534.177-.228.402-.403.675-.525.273-.123.57-.184.893-.184ZM66.69 28.251h1.578v1.677h1.627v-1.677h1.585v4.523h-1.585v-1.585h-1.627v1.585H66.69v-4.523ZM74.703 32.907c-1.497 0-2.245-.642-2.245-1.927V28.25h1.577v1.435c.117-.078.273-.141.467-.192.2-.05.429-.075.685-.075.556 0 .993.142 1.31.426.317.278.475.693.475 1.243 0 .596-.206 1.049-.617 1.36-.406.306-.957.46-1.652.46Zm2.645-4.656h1.585v4.523h-1.585v-4.523Zm-2.645 3.572c.217 0 .38-.064.492-.192.111-.128.167-.298.167-.51 0-.205-.056-.366-.167-.483-.111-.117-.273-.176-.484-.176a.921.921 0 0 0-.4.084.695.695 0 0 0-.276.225v.35c0 .218.056.39.167.518.111.123.278.184.5.184ZM82.393 31.64c.217 0 .403-.032.559-.093a1.64 1.64 0 0 0 .484-.3l.826.868c-.428.49-1.068.734-1.92.734-.528 0-.992-.1-1.393-.3-.4-.2-.712-.479-.934-.835a2.278 2.278 0 0 1-.326-1.21c0-.445.109-.843.326-1.193.217-.356.514-.634.893-.835.383-.2.812-.3 1.285-.3.44 0 .84.092 1.201.275.367.178.66.443.876.793.218.345.326.757.326 1.235l-3.23.618c.173.361.515.542 1.027.542Zm-.192-2.337a.903.903 0 0 0-.668.258c-.172.167-.27.41-.292.726l1.836-.359a.822.822 0 0 0-.317-.45.905.905 0 0 0-.559-.175ZM90.05 32.85c-.5 0-.948-.101-1.343-.301a2.285 2.285 0 0 1-.927-.835 2.28 2.28 0 0 1-.325-1.21c0-.45.109-.85.325-1.201.223-.357.532-.632.927-.827.395-.2.843-.3 1.343-.3.512 0 .954.111 1.327.334.373.217.637.52.793.91l-1.227.625c-.206-.406-.506-.609-.901-.609a.962.962 0 0 0-.71.284c-.183.189-.275.45-.275.784 0 .34.092.607.276.801.189.19.425.284.709.284.395 0 .695-.203.901-.61l1.227.627c-.156.39-.42.695-.793.918-.373.217-.815.325-1.327.325ZM97.49 28.251v4.523h-1.511v-.476a1.67 1.67 0 0 1-.6.41 1.898 1.898 0 0 1-.735.141c-.59 0-1.06-.172-1.41-.517-.346-.345-.518-.863-.518-1.552V28.25h1.586v2.27c0 .65.253.976.759.976.25 0 .453-.086.61-.258.155-.178.233-.448.233-.81v-2.178h1.585ZM100.823 32.85c-.5 0-.948-.101-1.343-.301a2.285 2.285 0 0 1-.926-.835 2.278 2.278 0 0 1-.326-1.21c0-.45.109-.85.326-1.201.222-.357.53-.632.926-.827.395-.2.843-.3 1.343-.3.512 0 .954.111 1.327.334.373.217.637.52.793.91l-1.227.625c-.206-.406-.506-.609-.901-.609a.961.961 0 0 0-.709.284c-.184.189-.276.45-.276.784 0 .34.092.607.276.801a.96.96 0 0 0 .709.284c.395 0 .695-.203.901-.61l1.227.627c-.156.39-.42.695-.793.918-.373.217-.815.325-1.327.325ZM109.497 28.176c.557 0 .999.167 1.327.5.334.335.501.838.501 1.511v2.587h-1.586v-2.328c0-.317-.061-.551-.183-.701-.117-.15-.284-.226-.501-.226a.725.725 0 0 0-.576.25c-.144.168-.217.42-.217.76v2.245h-1.585v-2.328c0-.618-.228-.927-.684-.927a.732.732 0 0 0-.584.25c-.145.168-.217.42-.217.76v2.245h-1.586v-4.523h1.51v.476c.167-.184.365-.32.593-.41.234-.094.487-.141.759-.141.317 0 .601.058.851.175.251.117.454.295.61.534a1.75 1.75 0 0 1 .676-.525 2.15 2.15 0 0 1 .892-.184ZM114.68 31.64c.217 0 .403-.032.559-.093.161-.06.323-.161.484-.3l.826.868c-.428.49-1.068.734-1.919.734-.529 0-.993-.1-1.394-.3-.4-.2-.712-.479-.934-.835a2.279 2.279 0 0 1-.326-1.21 2.261 2.261 0 0 1 1.219-2.028c.383-.2.812-.3 1.285-.3.439 0 .84.092 1.201.275.367.178.659.443.876.793.217.345.326.757.326 1.235l-3.23.618c.173.361.515.542 1.027.542Zm-.192-2.337a.904.904 0 0 0-.668.258c-.172.167-.269.41-.292.726l1.836-.359a.818.818 0 0 0-.317-.45.906.906 0 0 0-.559-.175ZM122.028 32.774v-2.378l-1.16 1.977h-.676l-1.126-2.01v2.411h-1.427v-4.523h1.669l1.26 2.362 1.385-2.362h1.494l.008 4.523h-1.427ZM126.678 32.907c-1.497 0-2.245-.642-2.245-1.927V28.25h1.577v1.435a1.54 1.54 0 0 1 .468-.192c.2-.05.428-.075.684-.075.556 0 .993.142 1.31.426.317.278.476.693.476 1.243 0 .596-.206 1.049-.618 1.36-.406.306-.957.46-1.652.46Zm2.645-4.656h1.586v4.523h-1.586v-4.523Zm-2.645 3.572c.217 0 .381-.064.492-.192.112-.128.167-.298.167-.51 0-.205-.055-.366-.167-.483-.111-.117-.272-.176-.484-.176a.92.92 0 0 0-.4.084.697.697 0 0 0-.276.225v.35c0 .218.056.39.167.518.111.123.278.184.501.184Z"/><path fill="#F90" d="M4.885 25.004 9.571 14.21h1.573v3.054l-3.326 7.74h2.48v-1.391c0-.339.563-.363.846-.333v4.263c-.774 0-.887-.262-.847-.393v-1.209H7.364L.108 42.147h-.272l1.844-5.594S.048 35.918.592 34.558c.544-1.36 3.81-8.617 3.81-8.617H.591v-.937h4.293Z"/><path fill="#F90" d="M17.1 25.004 12.413 14.21h-1.572v3.054l3.326 7.74h-2.48v-1.391c0-.339-.563-.363-.846-.333v4.263c.774 0 .887-.262.847-.393v-1.209h2.933l7.256 16.206h.272l-1.844-5.594s1.632-.635 1.088-1.995c-.544-1.36-3.81-8.617-3.81-8.617h3.81v-.937H17.1Z"/><path fill="#fff" fill-rule="evenodd" d="M11.023 12.638a3.205 3.205 0 1 0 0-6.41 3.205 3.205 0 0 0 0 6.41Zm0 1.754a4.958 4.958 0 1 0 0-9.917 4.958 4.958 0 0 0 0 9.917Z" clip-rule="evenodd"/><path fill="#fff" d="M10.116 0h1.814v4.777h-1.814V0Z"/></g><defs><clipPath id="a"><path fill="#fff" d="M0 0h131v42H0z"/></clipPath></defs></svg>