<svg xmlns="http://www.w3.org/2000/svg" width="110" height="35" fill="none"><g clip-path="url(#a)"><path fill="#333" d="M34.03 17.76c-.538.309-1.192.553-1.96.733-.768.18-1.566.269-2.394.269-1.117 0-2.07-.135-2.858-.404-.778-.27-1.367-.643-1.766-1.122a2.558 2.558 0 0 1-.583-1.661c0-.549.15-1.033.449-1.452.299-.419.713-.743 1.242-.972a2.272 2.272 0 0 1-.943-.868 2.525 2.525 0 0 1-.314-1.242c0-.579.18-1.107.538-1.586.37-.48.928-.863 1.676-1.152.748-.29 1.671-.434 2.768-.434.689 0 1.367.064 2.036.194a8.6 8.6 0 0 1 1.765.524l-.808 2.215a7.051 7.051 0 0 0-2.873-.614c-.708 0-1.237.095-1.586.284-.349.18-.524.434-.524.763 0 .599.434.898 1.302.898h2.963v2.26h-3.157c-.51 0-.893.084-1.152.254-.26.16-.39.4-.39.718 0 .34.19.604.57.793.378.19.967.285 1.765.285.568 0 1.152-.075 1.75-.225a6.055 6.055 0 0 0 1.587-.643l.897 2.184ZM41.657 14.303c.928.31 1.391.948 1.391 1.915 0 .729-.284 1.302-.853 1.721-.568.41-1.406.614-2.513.614h-4.564v-8.11h4.354c1.057 0 1.875.184 2.454.553.589.37.883.888.883 1.556 0 .39-.1.733-.3 1.033a2.1 2.1 0 0 1-.852.718Zm-3.995-.599h1.556c.658 0 .987-.244.987-.733 0-.469-.329-.703-.987-.703H37.66v1.436Zm1.765 3.008c.688 0 1.033-.25 1.033-.748 0-.499-.334-.748-1.003-.748h-1.796v1.496h1.766ZM48.285 15.665h-.957v2.888h-2.844v-8.11h2.843v2.992h1.018l1.99-2.993h3.008l-2.724 3.89 2.903 4.22h-3.351l-1.886-2.887ZM62.725 10.442v8.11h-2.843v-5.85h-2.05l-.06 1.242c-.04 1.057-.145 1.93-.314 2.618-.17.689-.45 1.227-.838 1.616-.39.38-.923.57-1.601.57-.35 0-.808-.066-1.377-.195l.12-2.32c.18.02.299.03.359.03.31 0 .543-.1.703-.3.16-.199.27-.463.33-.792.06-.34.1-.788.119-1.347l.12-3.382h7.332ZM72.985 10.442v8.11h-2.708V17.7c-.3.319-.659.563-1.078.733-.409.17-.848.254-1.317.254-1.057 0-1.9-.309-2.528-.928-.619-.618-.928-1.546-.928-2.783v-4.534h2.843v4.07c0 1.168.454 1.751 1.362 1.751.449 0 .813-.155 1.092-.464.28-.319.419-.803.419-1.451v-3.906h2.843ZM83.528 10.442v6.63c0 1.506-.41 2.633-1.228 3.38-.817.76-1.995 1.138-3.53 1.138-.799 0-1.547-.09-2.245-.27-.699-.179-1.292-.443-1.781-.792l1.032-1.99c.33.269.744.478 1.242.628.51.16 1.008.24 1.497.24.748 0 1.297-.165 1.646-.494.349-.33.523-.818.523-1.467v-.27c-.548.64-1.351.959-2.409.959-.718 0-1.381-.16-1.99-.48a3.775 3.775 0 0 1-1.451-1.376c-.36-.598-.539-1.287-.539-2.065 0-.768.18-1.446.539-2.035a3.634 3.634 0 0 1 1.451-1.377 4.116 4.116 0 0 1 1.99-.493c1.157 0 2.005.374 2.544 1.122v-.988h2.709Zm-4.58 5.432c.51 0 .928-.155 1.258-.464.339-.309.508-.708.508-1.197 0-.489-.164-.883-.493-1.182-.33-.31-.754-.464-1.272-.464-.519 0-.948.155-1.287.464-.33.3-.494.693-.494 1.182s.17.888.509 1.197c.339.31.763.464 1.272.464ZM29.081 22.516v4.883h-1.367v-3.788H25.86V27.4h-1.36v-4.883h4.582ZM32.072 23.555c.414 0 .774.08 1.081.238.307.158.542.386.705.683.167.293.25.637.25 1.033 0 .39-.076.735-.23 1.032-.153.293-.37.521-.648.684-.28.158-.602.237-.97.237-.432 0-.772-.133-1.018-.398v1.689h-1.326v-3.23c0-.391.088-.735.265-1.033.177-.297.428-.528.754-.69a2.512 2.512 0 0 1 1.137-.245Zm-.063 2.854a.727.727 0 0 0 .572-.245c.149-.167.223-.386.223-.655 0-.27-.074-.486-.223-.65a.718.718 0 0 0-.572-.25.717.717 0 0 0-.572.25c-.144.164-.216.38-.216.65 0 .274.07.493.209.655a.735.735 0 0 0 .579.245ZM36.612 27.462c-.404 0-.77-.084-1.095-.251a1.92 1.92 0 0 1-.768-.698 1.905 1.905 0 0 1-.272-1.011c0-.372.091-.707.273-1.005a1.88 1.88 0 0 1 .76-.69 2.374 2.374 0 0 1 1.102-.252c.41 0 .777.084 1.102.252.326.162.58.392.76.69.182.293.273.628.273 1.005 0 .376-.09.714-.272 1.011-.182.298-.435.53-.76.698a2.374 2.374 0 0 1-1.103.251Zm0-1.053a.75.75 0 0 0 .572-.238c.149-.162.223-.386.223-.67 0-.278-.074-.497-.223-.655a.75.75 0 0 0-.572-.237.75.75 0 0 0-.572.237c-.149.158-.223.377-.223.656 0 .283.074.507.223.67a.75.75 0 0 0 .572.237ZM41.37 26.45c.182 0 .338-.025.468-.076.135-.051.27-.135.405-.251l.69.725c-.358.41-.893.614-1.604.614-.442 0-.83-.084-1.165-.251a1.899 1.899 0 0 1-.782-.698 1.905 1.905 0 0 1-.272-1.011 1.893 1.893 0 0 1 1.019-1.695c.32-.168.679-.252 1.074-.252.368 0 .703.077 1.005.23.307.15.55.37.732.663.182.289.272.633.272 1.033l-2.7.516c.145.302.43.453.859.453Zm-.16-1.953a.755.755 0 0 0-.558.216c-.144.14-.225.342-.244.607l1.535-.3a.688.688 0 0 0-.265-.376.757.757 0 0 0-.468-.147ZM45.616 26.053h-.446v1.346h-1.326v-3.78h1.326v1.394h.474l.928-1.395h1.402l-1.27 1.814 1.354 1.967h-1.563l-.879-1.346ZM53.423 23.555c.465 0 .834.14 1.109.419.279.279.419.7.419 1.263v2.162h-1.326v-1.946c0-.265-.051-.46-.153-.586a.5.5 0 0 0-.419-.189c-.2 0-.36.07-.481.21-.121.14-.182.35-.182.635v1.876h-1.325v-1.946c0-.516-.19-.774-.572-.774a.613.613 0 0 0-.489.209c-.12.14-.181.35-.181.635v1.876h-1.325v-3.78h1.262v.397a1.3 1.3 0 0 1 .495-.342c.196-.08.407-.119.635-.119.266 0 .503.05.712.147.21.097.379.246.51.446.148-.19.336-.337.564-.44.228-.101.477-.153.747-.153ZM55.753 23.618h1.319v1.402h1.36v-1.402h1.325V27.4h-1.325v-1.325h-1.36v1.325h-1.319v-3.78ZM62.451 27.51c-1.25 0-1.876-.536-1.876-1.61v-2.282h1.318v1.2c.098-.065.228-.119.39-.16.168-.042.359-.063.573-.063.465 0 .83.118 1.095.356.265.232.398.579.398 1.039 0 .498-.172.877-.517 1.137-.339.256-.8.384-1.38.384Zm2.212-3.892h1.325V27.4h-1.325v-3.78Zm-2.212 2.986c.182 0 .319-.054.412-.16a.625.625 0 0 0 .14-.426.562.562 0 0 0-.14-.405c-.093-.097-.228-.146-.405-.146a.768.768 0 0 0-.335.07.579.579 0 0 0-.23.188v.293c0 .181.047.325.14.432.093.103.232.154.418.154ZM68.88 26.45c.182 0 .338-.025.468-.076.135-.051.27-.135.404-.251l.691.725c-.358.41-.893.614-1.605.614-.441 0-.83-.084-1.164-.251a1.9 1.9 0 0 1-.782-.698 1.905 1.905 0 0 1-.272-1.011c0-.372.09-.705.272-.998.181-.298.43-.53.747-.698.32-.167.679-.25 1.074-.25.367 0 .702.076 1.005.23.306.148.55.37.732.662.181.289.272.633.272 1.033l-2.7.516c.144.302.43.453.858.453Zm-.16-1.953a.755.755 0 0 0-.558.216c-.144.14-.226.342-.244.607l1.534-.3a.688.688 0 0 0-.265-.376.757.757 0 0 0-.467-.147ZM75.282 27.462c-.419 0-.793-.084-1.123-.251a1.91 1.91 0 0 1-.775-.698 1.904 1.904 0 0 1-.272-1.011c0-.377.09-.712.272-1.005.186-.298.445-.528.775-.69.33-.168.704-.252 1.123-.252.428 0 .797.093 1.11.28.31.18.532.434.662.76l-1.026.523c-.172-.34-.423-.51-.753-.51a.805.805 0 0 0-.593.238c-.154.158-.23.377-.23.656 0 .283.076.507.23.67a.805.805 0 0 0 .593.237c.33 0 .581-.17.753-.51l1.026.523c-.13.326-.351.582-.663.768-.312.181-.681.272-1.11.272ZM81.5 23.618V27.4h-1.262v-.397c-.14.148-.307.262-.502.341-.19.08-.395.119-.614.119-.493 0-.886-.144-1.179-.433-.288-.288-.433-.72-.433-1.297v-2.114h1.326v1.898c0 .544.212.816.635.816.21 0 .379-.072.51-.216.13-.15.194-.375.194-.677v-1.82h1.326ZM84.288 27.462c-.418 0-.793-.084-1.123-.251-.33-.168-.588-.4-.774-.698a1.905 1.905 0 0 1-.272-1.011c0-.377.09-.712.272-1.005a1.86 1.86 0 0 1 .774-.69c.33-.168.705-.252 1.123-.252.428 0 .798.093 1.11.28.311.18.532.434.662.76l-1.025.523c-.172-.34-.423-.51-.754-.51a.805.805 0 0 0-.593.238c-.153.158-.23.377-.23.656 0 .283.077.507.23.67a.805.805 0 0 0 .593.237c.33 0 .582-.17.754-.51l1.025.523c-.13.326-.35.582-.663.768-.311.181-.68.272-1.109.272ZM91.54 23.555c.465 0 .835.14 1.109.419.28.279.419.7.419 1.263v2.162h-1.326v-1.946c0-.265-.051-.46-.153-.586a.499.499 0 0 0-.419-.189c-.2 0-.36.07-.481.21-.121.14-.182.35-.182.635v1.876h-1.325v-1.946c0-.516-.19-.774-.572-.774a.613.613 0 0 0-.489.209c-.12.14-.18.35-.18.635v1.876h-1.326v-3.78h1.262v.397a1.3 1.3 0 0 1 .496-.342c.195-.08.406-.119.634-.119.265 0 .503.05.712.147.21.097.379.246.51.446.148-.19.337-.337.564-.44.228-.101.477-.153.747-.153ZM95.872 26.45c.182 0 .338-.025.468-.076.135-.051.27-.135.404-.251l.691.725c-.358.41-.893.614-1.605.614-.441 0-.83-.084-1.165-.251a1.9 1.9 0 0 1-.78-.698 1.905 1.905 0 0 1-.273-1.011c0-.372.09-.705.272-.998.181-.298.43-.53.746-.698.321-.167.68-.25 1.075-.25.367 0 .702.076 1.004.23.307.148.552.37.733.662.181.289.272.633.272 1.033l-2.7.516c.144.302.43.453.858.453Zm-.16-1.953a.755.755 0 0 0-.558.216c-.144.14-.226.342-.244.607l1.534-.3a.687.687 0 0 0-.265-.376.757.757 0 0 0-.467-.147ZM102.016 27.4V25.41l-.97 1.653h-.565l-.942-1.68v2.015h-1.193v-3.78h1.395l1.054 1.973 1.158-1.974h1.249l.006 3.781h-1.192ZM105.903 27.51c-1.251 0-1.877-.536-1.877-1.61v-2.282h1.319v1.2c.097-.065.227-.119.39-.16.168-.042.358-.063.572-.063.465 0 .83.118 1.096.356.265.232.397.579.397 1.039 0 .498-.172.877-.516 1.137-.34.256-.8.384-1.381.384Zm2.211-3.892h1.326V27.4h-1.326v-3.78Zm-2.211 2.986c.181 0 .318-.054.411-.16a.626.626 0 0 0 .14-.426.563.563 0 0 0-.14-.405c-.093-.097-.228-.146-.404-.146a.766.766 0 0 0-.335.07.57.57 0 0 0-.23.188v.293c0 .181.046.325.139.432.093.103.233.154.419.154Z"/><path fill="#F90" d="m4.084 20.904 3.918-9.024h1.314v2.553l-2.78 6.47h2.072v-1.162c0-.283.472-.304.708-.278v3.564c-.647 0-.741-.22-.708-.329v-1.011H6.157L.09 35.235h-.227l1.542-4.676s-1.365-.53-.91-1.668c.455-1.138 3.184-7.204 3.184-7.204H.495v-.784h3.589Z"/><path fill="#F90" d="m14.296 20.904-3.918-9.024H9.063v2.553l2.78 6.47H9.772v-1.162c0-.283-.472-.304-.708-.278v3.564c.647 0 .742-.22.708-.329v-1.011h2.452l6.066 13.548h.228l-1.542-4.676s1.365-.53.91-1.668c-.455-1.138-3.185-7.204-3.185-7.204h3.185v-.784h-3.59Z"/><path fill="#333" fill-rule="evenodd" d="M9.215 10.565a2.68 2.68 0 1 0 0-5.358 2.68 2.68 0 0 0 0 5.358Zm0 1.466a4.145 4.145 0 1 0 0-8.29 4.145 4.145 0 0 0 0 8.29Z" clip-rule="evenodd"/><path fill="#333" d="M8.457 0h1.516v3.994H8.457V0Z"/></g><defs><clipPath id="a"><path fill="#fff" d="M0 0h110v35H0z"/></clipPath></defs></svg>